<svg width="1453" height="338" viewBox="0 0 1453 338" fill="none" xmlns="http://www.w3.org/2000/svg">
<path d="M196 16.5L225 0L391 288L362 305L196 16.5Z" fill="url(#paint0_linear_0_1)"/>
<path d="M196 16.5L167.5 0H225L196 16.5Z" fill="#3B82F6"/>
<path d="M362 305L391 288L362 338V305Z" fill="#8B5CF6"/>
<path d="M29 305L0 288L29 338V305Z" fill="#EC4899"/>
<path d="M362 338V305H29V338H362Z" fill="url(#paint1_linear_0_1)"/>
<path d="M29 305L0 288L167.5 0L196 16.5L29 305Z" fill="url(#paint2_linear_0_1)"/>
<path d="M29 305L352 296L196 25.5L38 296L343 287L196 34.5L47 287L334 278L196 43.5L56 278L325 269L196 52.5L65 269L316 260L196 61.5L74 260L307 251L196 70.5L83 251L298 242L196 79.5L92 242L289 233L196 88.5L101 233L280 224L196 97.5" stroke="url(#paint3_angular_0_1)"/>
<path d="M534.684 152.609C533.642 148.964 532.6 145.839 531.559 143.234C530.517 140.5 529.41 138.091 528.238 136.008C527.197 133.794 525.96 131.841 524.527 130.148C523.225 128.456 521.663 126.698 519.84 124.875C515.413 120.318 510.335 116.932 504.605 114.719C499.007 112.375 493.017 111.203 486.637 111.203C478.564 111.203 471.207 112.766 464.566 115.891C458.056 119.016 452.457 123.508 447.77 129.367C443.212 135.096 439.697 142.062 437.223 150.266C434.749 158.469 433.512 167.583 433.512 177.609C433.512 190.63 435.27 202.023 438.785 211.789C442.301 221.555 447.314 229.172 453.824 234.641C463.59 242.453 475.243 246.359 488.785 246.359C498.03 246.359 506.559 244.602 514.371 241.086C522.184 237.57 530.257 231.841 538.59 223.898L542.496 227.805C535.725 236.789 527.066 243.755 516.52 248.703C506.103 253.651 494.514 256.125 481.754 256.125C470.686 256.125 460.595 254.302 451.48 250.656C442.366 247.01 434.553 241.932 428.043 235.422C421.533 228.781 416.454 220.839 412.809 211.594C409.293 202.349 407.535 192.062 407.535 180.734C407.535 167.844 409.749 156.255 414.176 145.969C418.603 135.552 425.113 126.828 433.707 119.797C440.478 114.328 448.095 110.096 456.559 107.102C465.022 103.977 473.551 102.414 482.145 102.414C493.212 102.414 504.15 104.237 514.957 107.883C518.603 109.185 521.533 109.836 523.746 109.836C525.96 109.836 527.848 109.185 529.41 107.883C531.103 106.581 532.275 104.758 532.926 102.414H537.613L539.762 152.609H534.684ZM664.371 173.117V129.758C664.371 125.721 664.111 122.531 663.59 120.188C663.199 117.714 662.288 115.76 660.855 114.328C659.553 112.896 657.6 111.919 654.996 111.398C652.392 110.747 648.941 110.227 644.645 109.836V105.344H706.559V109.836C702.262 110.227 698.811 110.747 696.207 111.398C693.603 111.919 691.585 112.896 690.152 114.328C688.85 115.76 688.004 117.714 687.613 120.188C687.223 122.531 687.027 125.721 687.027 129.758V228.977C687.027 232.883 687.223 236.073 687.613 238.547C688.134 240.891 689.111 242.779 690.543 244.211C691.975 245.643 693.928 246.685 696.402 247.336C699.007 247.987 702.392 248.508 706.559 248.898V253H644.645V248.898C648.941 248.638 652.392 248.247 654.996 247.727C657.6 247.076 659.553 245.969 660.855 244.406C662.288 242.714 663.199 240.435 663.59 237.57C664.111 234.706 664.371 230.93 664.371 226.242V182.883H596.598V228.977C596.598 232.883 596.793 236.073 597.184 238.547C597.704 240.891 598.681 242.779 600.113 244.211C601.546 245.643 603.564 246.685 606.168 247.336C608.772 247.987 612.158 248.508 616.324 248.898V253H554.215V248.898C558.642 248.638 562.158 248.247 564.762 247.727C567.366 247.076 569.319 245.969 570.621 244.406C572.053 242.714 572.965 240.435 573.355 237.57C573.746 234.706 573.941 230.93 573.941 226.242V129.758C573.941 125.721 573.681 122.531 573.16 120.188C572.77 117.714 571.858 115.76 570.426 114.328C569.124 112.896 567.171 111.919 564.566 111.398C561.962 110.747 558.512 110.227 554.215 109.836V105.344H616.324V109.836C612.027 110.227 608.577 110.747 605.973 111.398C603.368 111.919 601.35 112.896 599.918 114.328C598.616 115.76 597.704 117.714 597.184 120.188C596.793 122.531 596.598 125.721 596.598 129.758V173.117H664.371ZM857.926 253H821.988L768.863 184.25L756.559 184.836V228.977C756.559 232.883 756.754 236.073 757.145 238.547C757.665 241.021 758.642 243.039 760.074 244.602C761.507 246.034 763.525 247.076 766.129 247.727C768.733 248.247 772.184 248.638 776.48 248.898V253H714.762V248.898C718.928 248.508 722.249 247.987 724.723 247.336C727.327 246.685 729.28 245.578 730.582 244.016C731.884 242.453 732.73 240.305 733.121 237.57C733.512 234.706 733.707 230.93 733.707 226.242V129.758C733.707 125.852 733.512 122.727 733.121 120.383C732.73 117.909 731.884 115.956 730.582 114.523C729.28 113.091 727.327 112.049 724.723 111.398C722.249 110.747 718.928 110.227 714.762 109.836V105.344H776.285C787.223 105.344 796.988 106.841 805.582 109.836C814.306 112.701 820.751 116.607 824.918 121.555C827.652 124.549 829.671 128.065 830.973 132.102C832.275 136.008 832.926 140.24 832.926 144.797C832.926 154.953 829.736 162.961 823.355 168.82C817.105 174.68 806.884 179.042 792.691 181.906L838.59 238.547C841.715 242.193 844.645 244.732 847.379 246.164C850.243 247.596 853.759 248.508 857.926 248.898V253ZM756.559 176.633C761.767 176.503 766.259 176.307 770.035 176.047C773.941 175.786 777.327 175.396 780.191 174.875C783.186 174.224 785.921 173.443 788.395 172.531C790.868 171.62 793.408 170.448 796.012 169.016C800.048 166.802 803.173 163.547 805.387 159.25C807.6 154.823 808.707 149.81 808.707 144.211C808.707 133.664 805.387 125.982 798.746 121.164C792.236 116.216 781.819 113.742 767.496 113.742C763.069 113.742 760.139 114.328 758.707 115.5C757.275 116.542 756.559 118.625 756.559 121.75V176.633ZM941.324 102.414C951.871 102.414 961.897 104.628 971.402 109.055C981.038 113.482 989.176 119.602 995.816 127.414C1001.29 134.055 1005.52 141.802 1008.51 150.656C1011.51 159.51 1013 169.016 1013 179.172C1013 190.5 1011.18 200.917 1007.54 210.422C1004.02 219.797 999.007 227.87 992.496 234.641C986.116 241.411 978.434 246.685 969.449 250.461C960.595 254.237 950.829 256.125 940.152 256.125C929.345 256.125 919.449 254.237 910.465 250.461C901.48 246.685 893.798 241.411 887.418 234.641C881.038 227.74 876.09 219.536 872.574 210.031C869.059 200.526 867.301 190.044 867.301 178.586C867.301 167.388 869.124 157.102 872.77 147.727C876.415 138.352 881.493 130.344 888.004 123.703C894.514 116.932 902.262 111.724 911.246 108.078C920.361 104.302 930.387 102.414 941.324 102.414ZM939.371 110.227C933.251 110.227 927.392 111.659 921.793 114.523C916.194 117.258 911.311 121.099 907.145 126.047C904.931 128.651 902.913 131.906 901.09 135.812C899.397 139.719 897.9 144.016 896.598 148.703C895.296 153.26 894.319 158.143 893.668 163.352C893.017 168.56 892.691 173.768 892.691 178.977C892.691 192.388 894.449 204.302 897.965 214.719C901.48 225.135 906.363 232.948 912.613 238.156C920.426 244.797 929.671 248.117 940.348 248.117C945.947 248.117 951.22 247.076 956.168 244.992C961.246 242.909 965.673 239.979 969.449 236.203C981.559 224.354 987.613 204.953 987.613 178C987.613 165.109 985.79 153.651 982.145 143.625C978.629 133.599 973.681 125.852 967.301 120.383C959.098 113.612 949.788 110.227 939.371 110.227ZM1153.24 255.539L1054.61 132.883V220.188C1054.61 225.917 1054.87 230.604 1055.39 234.25C1056.04 237.766 1057.14 240.565 1058.71 242.648C1060.27 244.732 1062.42 246.229 1065.15 247.141C1067.89 248.052 1071.4 248.638 1075.7 248.898V253H1023.36V248.898C1027.91 248.508 1031.56 247.922 1034.29 247.141C1037.16 246.229 1039.31 244.732 1040.74 242.648C1042.3 240.565 1043.34 237.766 1043.86 234.25C1044.38 230.604 1044.64 225.917 1044.64 220.188V122.141C1042.43 119.536 1040.54 117.453 1038.98 115.891C1037.42 114.198 1035.86 112.961 1034.29 112.18C1032.73 111.268 1031.1 110.682 1029.41 110.422C1027.72 110.031 1025.7 109.836 1023.36 109.836V105.344H1061.44L1147.18 213.352V138.156C1147.18 124.615 1145.04 116.281 1140.74 113.156C1139.05 112.115 1137.16 111.398 1135.07 111.008C1133.12 110.487 1130.06 110.096 1125.89 109.836V105.344H1178.04V109.836C1173.88 110.096 1170.75 110.552 1168.67 111.203C1166.71 111.854 1165.02 112.701 1163.59 113.742C1159.16 116.607 1156.95 124.745 1156.95 138.156V255.539H1153.24ZM1263.2 102.414C1273.75 102.414 1283.77 104.628 1293.28 109.055C1302.91 113.482 1311.05 119.602 1317.69 127.414C1323.16 134.055 1327.39 141.802 1330.39 150.656C1333.38 159.51 1334.88 169.016 1334.88 179.172C1334.88 190.5 1333.06 200.917 1329.41 210.422C1325.89 219.797 1320.88 227.87 1314.37 234.641C1307.99 241.411 1300.31 246.685 1291.32 250.461C1282.47 254.237 1272.7 256.125 1262.03 256.125C1251.22 256.125 1241.32 254.237 1232.34 250.461C1223.36 246.685 1215.67 241.411 1209.29 234.641C1202.91 227.74 1197.96 219.536 1194.45 210.031C1190.93 200.526 1189.18 190.044 1189.18 178.586C1189.18 167.388 1191 157.102 1194.64 147.727C1198.29 138.352 1203.37 130.344 1209.88 123.703C1216.39 116.932 1224.14 111.724 1233.12 108.078C1242.24 104.302 1252.26 102.414 1263.2 102.414ZM1261.25 110.227C1255.13 110.227 1249.27 111.659 1243.67 114.523C1238.07 117.258 1233.19 121.099 1229.02 126.047C1226.81 128.651 1224.79 131.906 1222.96 135.812C1221.27 139.719 1219.77 144.016 1218.47 148.703C1217.17 153.26 1216.19 158.143 1215.54 163.352C1214.89 168.56 1214.57 173.768 1214.57 178.977C1214.57 192.388 1216.32 204.302 1219.84 214.719C1223.36 225.135 1228.24 232.948 1234.49 238.156C1242.3 244.797 1251.55 248.117 1262.22 248.117C1267.82 248.117 1273.1 247.076 1278.04 244.992C1283.12 242.909 1287.55 239.979 1291.32 236.203C1303.43 224.354 1309.49 204.953 1309.49 178C1309.49 165.109 1307.67 153.651 1304.02 143.625C1300.5 133.599 1295.56 125.852 1289.18 120.383C1280.97 113.612 1271.66 110.227 1261.25 110.227ZM1446.99 149.875H1441.52C1440.61 146.62 1439.7 143.755 1438.79 141.281C1438 138.807 1437.03 136.594 1435.86 134.641C1434.81 132.557 1433.64 130.734 1432.34 129.172C1431.04 127.479 1429.54 125.721 1427.85 123.898C1420.04 115.695 1410.92 111.594 1400.5 111.594C1393.6 111.594 1388 113.417 1383.71 117.062C1379.54 120.708 1377.46 125.656 1377.46 131.906C1377.46 138.026 1380 143.755 1385.07 149.094C1390.15 154.432 1398.49 160.292 1410.07 166.672C1424.92 174.745 1435.6 182.622 1442.11 190.305C1448.75 197.987 1452.07 206.385 1452.07 215.5C1452.07 221.229 1450.89 226.568 1448.55 231.516C1446.21 236.464 1443.02 240.76 1438.98 244.406C1434.94 248.052 1430.13 250.917 1424.53 253C1418.93 255.083 1412.94 256.125 1406.56 256.125C1402 256.125 1397.51 255.734 1393.08 254.953C1388.65 254.172 1384.36 252.87 1380.19 251.047C1377.98 250.266 1375.96 249.68 1374.14 249.289C1372.31 248.768 1370.82 248.508 1369.64 248.508C1367.95 248.508 1366.52 249.224 1365.35 250.656C1364.18 252.089 1363.52 253.846 1363.39 255.93H1358.51L1351.87 208.664H1356.95C1362.55 222.336 1368.93 232.362 1376.09 238.742C1383.25 244.992 1391.91 248.117 1402.07 248.117C1410.27 248.117 1416.85 245.839 1421.79 241.281C1426.87 236.724 1429.41 230.734 1429.41 223.312C1429.41 220.448 1429.08 217.909 1428.43 215.695C1427.91 213.482 1427.13 211.594 1426.09 210.031C1423.49 205.865 1419.32 201.568 1413.59 197.141C1407.99 192.714 1401.22 188.286 1393.28 183.859C1387.03 180.604 1381.69 177.349 1377.26 174.094C1372.83 170.839 1369.19 167.453 1366.32 163.938C1363.59 160.422 1361.57 156.776 1360.27 153C1358.97 149.224 1358.32 145.122 1358.32 140.695C1358.32 128.326 1362.61 118.69 1371.21 111.789C1374.85 108.794 1378.89 106.516 1383.32 104.953C1387.74 103.26 1392.11 102.414 1396.4 102.414C1400.31 102.414 1404.21 102.87 1408.12 103.781C1412.16 104.562 1416.26 105.734 1420.43 107.297C1422.51 108.208 1424.4 108.859 1426.09 109.25C1427.78 109.641 1429.21 109.836 1430.39 109.836C1434.03 109.836 1436.38 107.362 1437.42 102.414H1442.11L1446.99 149.875Z" fill="url(#paint4_linear_0_1)"/>
<defs>
<linearGradient id="paint0_linear_0_1" x1="211" y1="8" x2="376" y2="296" gradientUnits="userSpaceOnUse">
<stop stop-color="#3B82F6"/>
<stop offset="1" stop-color="#8B5CF6"/>
</linearGradient>
<linearGradient id="paint1_linear_0_1" x1="29" y1="321.5" x2="362" y2="321.5" gradientUnits="userSpaceOnUse">
<stop stop-color="#EC4899"/>
<stop offset="1" stop-color="#8B5CF6"/>
</linearGradient>
<linearGradient id="paint2_linear_0_1" x1="181" y1="8" x2="14.5" y2="296.5" gradientUnits="userSpaceOnUse">
<stop stop-color="#3B82F6"/>
<stop offset="1" stop-color="#EC4899"/>
</linearGradient>
<radialGradient id="paint3_angular_0_1" cx="0" cy="0" r="1" gradientUnits="userSpaceOnUse" gradientTransform="translate(191 165) rotate(-146.159) scale(184.508 183.751)">
<stop offset="0.20759" stop-color="#EC4899"/>
<stop offset="0.477974" stop-color="#8B5CF6"/>
<stop offset="0.841169" stop-color="#3B82F6"/>
</radialGradient>
<linearGradient id="paint4_linear_0_1" x1="401" y1="169" x2="1467" y2="169" gradientUnits="userSpaceOnUse">
<stop stop-color="#3B82F6"/>
<stop offset="0.5" stop-color="#8B5CF6"/>
<stop offset="1" stop-color="#EC4899"/>
</linearGradient>
</defs>
</svg>
