<svg width="1453" height="391" viewBox="0 0 1453 391" fill="none" xmlns="http://www.w3.org/2000/svg">
<path d="M196 42.5L225 26L391 314L362 331L196 42.5Z" fill="url(#paint0_linear_0_1)"/>
<path d="M196 42.5L167.5 26H225L196 42.5Z" fill="#3B82F6"/>
<path d="M362 331L391 314L362 364V331Z" fill="#8B5CF6"/>
<path d="M29 331L0 314L29 364V331Z" fill="#EC4899"/>
<path d="M362 364V331H29V364H362Z" fill="url(#paint1_linear_0_1)"/>
<path d="M29 331L0 314L167.5 26L196 42.5L29 331Z" fill="url(#paint2_linear_0_1)"/>
<path d="M29 331L352 322L196 51.5L38 322L343 313L196 60.5L47 313L334 304L196 69.5L56 304L325 295L196 78.5L65 295L316 286L196 87.5L74 286L307 277L196 96.5L83 277L298 268L196 105.5L92 268L289 259L196 114.5L101 259L280 250L196 123.5" stroke="url(#paint3_angular_0_1)"/>
<path d="M534.684 178.609C533.642 174.964 532.6 171.839 531.559 169.234C530.517 166.5 529.41 164.091 528.238 162.008C527.197 159.794 525.96 157.841 524.527 156.148C523.225 154.456 521.663 152.698 519.84 150.875C515.413 146.318 510.335 142.932 504.605 140.719C499.007 138.375 493.017 137.203 486.637 137.203C478.564 137.203 471.207 138.766 464.566 141.891C458.056 145.016 452.457 149.508 447.77 155.367C443.212 161.096 439.697 168.062 437.223 176.266C434.749 184.469 433.512 193.583 433.512 203.609C433.512 216.63 435.27 228.023 438.785 237.789C442.301 247.555 447.314 255.172 453.824 260.641C463.59 268.453 475.243 272.359 488.785 272.359C498.03 272.359 506.559 270.602 514.371 267.086C522.184 263.57 530.257 257.841 538.59 249.898L542.496 253.805C535.725 262.789 527.066 269.755 516.52 274.703C506.103 279.651 494.514 282.125 481.754 282.125C470.686 282.125 460.595 280.302 451.48 276.656C442.366 273.01 434.553 267.932 428.043 261.422C421.533 254.781 416.454 246.839 412.809 237.594C409.293 228.349 407.535 218.062 407.535 206.734C407.535 193.844 409.749 182.255 414.176 171.969C418.603 161.552 425.113 152.828 433.707 145.797C440.478 140.328 448.095 136.096 456.559 133.102C465.022 129.977 473.551 128.414 482.145 128.414C493.212 128.414 504.15 130.237 514.957 133.883C518.603 135.185 521.533 135.836 523.746 135.836C525.96 135.836 527.848 135.185 529.41 133.883C531.103 132.581 532.275 130.758 532.926 128.414H537.613L539.762 178.609H534.684ZM664.371 199.117V155.758C664.371 151.721 664.111 148.531 663.59 146.188C663.199 143.714 662.288 141.76 660.855 140.328C659.553 138.896 657.6 137.919 654.996 137.398C652.392 136.747 648.941 136.227 644.645 135.836V131.344H706.559V135.836C702.262 136.227 698.811 136.747 696.207 137.398C693.603 137.919 691.585 138.896 690.152 140.328C688.85 141.76 688.004 143.714 687.613 146.188C687.223 148.531 687.027 151.721 687.027 155.758V254.977C687.027 258.883 687.223 262.073 687.613 264.547C688.134 266.891 689.111 268.779 690.543 270.211C691.975 271.643 693.928 272.685 696.402 273.336C699.007 273.987 702.392 274.508 706.559 274.898V279H644.645V274.898C648.941 274.638 652.392 274.247 654.996 273.727C657.6 273.076 659.553 271.969 660.855 270.406C662.288 268.714 663.199 266.435 663.59 263.57C664.111 260.706 664.371 256.93 664.371 252.242V208.883H596.598V254.977C596.598 258.883 596.793 262.073 597.184 264.547C597.704 266.891 598.681 268.779 600.113 270.211C601.546 271.643 603.564 272.685 606.168 273.336C608.772 273.987 612.158 274.508 616.324 274.898V279H554.215V274.898C558.642 274.638 562.158 274.247 564.762 273.727C567.366 273.076 569.319 271.969 570.621 270.406C572.053 268.714 572.965 266.435 573.355 263.57C573.746 260.706 573.941 256.93 573.941 252.242V155.758C573.941 151.721 573.681 148.531 573.16 146.188C572.77 143.714 571.858 141.76 570.426 140.328C569.124 138.896 567.171 137.919 564.566 137.398C561.962 136.747 558.512 136.227 554.215 135.836V131.344H616.324V135.836C612.027 136.227 608.577 136.747 605.973 137.398C603.368 137.919 601.35 138.896 599.918 140.328C598.616 141.76 597.704 143.714 597.184 146.188C596.793 148.531 596.598 151.721 596.598 155.758V199.117H664.371ZM857.926 279H821.988L768.863 210.25L756.559 210.836V254.977C756.559 258.883 756.754 262.073 757.145 264.547C757.665 267.021 758.642 269.039 760.074 270.602C761.507 272.034 763.525 273.076 766.129 273.727C768.733 274.247 772.184 274.638 776.48 274.898V279H714.762V274.898C718.928 274.508 722.249 273.987 724.723 273.336C727.327 272.685 729.28 271.578 730.582 270.016C731.884 268.453 732.73 266.305 733.121 263.57C733.512 260.706 733.707 256.93 733.707 252.242V155.758C733.707 151.852 733.512 148.727 733.121 146.383C732.73 143.909 731.884 141.956 730.582 140.523C729.28 139.091 727.327 138.049 724.723 137.398C722.249 136.747 718.928 136.227 714.762 135.836V131.344H776.285C787.223 131.344 796.988 132.841 805.582 135.836C814.306 138.701 820.751 142.607 824.918 147.555C827.652 150.549 829.671 154.065 830.973 158.102C832.275 162.008 832.926 166.24 832.926 170.797C832.926 180.953 829.736 188.961 823.355 194.82C817.105 200.68 806.884 205.042 792.691 207.906L838.59 264.547C841.715 268.193 844.645 270.732 847.379 272.164C850.243 273.596 853.759 274.508 857.926 274.898V279ZM756.559 202.633C761.767 202.503 766.259 202.307 770.035 202.047C773.941 201.786 777.327 201.396 780.191 200.875C783.186 200.224 785.921 199.443 788.395 198.531C790.868 197.62 793.408 196.448 796.012 195.016C800.048 192.802 803.173 189.547 805.387 185.25C807.6 180.823 808.707 175.81 808.707 170.211C808.707 159.664 805.387 151.982 798.746 147.164C792.236 142.216 781.819 139.742 767.496 139.742C763.069 139.742 760.139 140.328 758.707 141.5C757.275 142.542 756.559 144.625 756.559 147.75V202.633ZM941.324 128.414C951.871 128.414 961.897 130.628 971.402 135.055C981.038 139.482 989.176 145.602 995.816 153.414C1001.29 160.055 1005.52 167.802 1008.51 176.656C1011.51 185.51 1013 195.016 1013 205.172C1013 216.5 1011.18 226.917 1007.54 236.422C1004.02 245.797 999.007 253.87 992.496 260.641C986.116 267.411 978.434 272.685 969.449 276.461C960.595 280.237 950.829 282.125 940.152 282.125C929.345 282.125 919.449 280.237 910.465 276.461C901.48 272.685 893.798 267.411 887.418 260.641C881.038 253.74 876.09 245.536 872.574 236.031C869.059 226.526 867.301 216.044 867.301 204.586C867.301 193.388 869.124 183.102 872.77 173.727C876.415 164.352 881.493 156.344 888.004 149.703C894.514 142.932 902.262 137.724 911.246 134.078C920.361 130.302 930.387 128.414 941.324 128.414ZM939.371 136.227C933.251 136.227 927.392 137.659 921.793 140.523C916.194 143.258 911.311 147.099 907.145 152.047C904.931 154.651 902.913 157.906 901.09 161.812C899.397 165.719 897.9 170.016 896.598 174.703C895.296 179.26 894.319 184.143 893.668 189.352C893.017 194.56 892.691 199.768 892.691 204.977C892.691 218.388 894.449 230.302 897.965 240.719C901.48 251.135 906.363 258.948 912.613 264.156C920.426 270.797 929.671 274.117 940.348 274.117C945.947 274.117 951.22 273.076 956.168 270.992C961.246 268.909 965.673 265.979 969.449 262.203C981.559 250.354 987.613 230.953 987.613 204C987.613 191.109 985.79 179.651 982.145 169.625C978.629 159.599 973.681 151.852 967.301 146.383C959.098 139.612 949.788 136.227 939.371 136.227ZM1153.24 281.539L1054.61 158.883V246.188C1054.61 251.917 1054.87 256.604 1055.39 260.25C1056.04 263.766 1057.14 266.565 1058.71 268.648C1060.27 270.732 1062.42 272.229 1065.15 273.141C1067.89 274.052 1071.4 274.638 1075.7 274.898V279H1023.36V274.898C1027.91 274.508 1031.56 273.922 1034.29 273.141C1037.16 272.229 1039.31 270.732 1040.74 268.648C1042.3 266.565 1043.34 263.766 1043.86 260.25C1044.38 256.604 1044.64 251.917 1044.64 246.188V148.141C1042.43 145.536 1040.54 143.453 1038.98 141.891C1037.42 140.198 1035.86 138.961 1034.29 138.18C1032.73 137.268 1031.1 136.682 1029.41 136.422C1027.72 136.031 1025.7 135.836 1023.36 135.836V131.344H1061.44L1147.18 239.352V164.156C1147.18 150.615 1145.04 142.281 1140.74 139.156C1139.05 138.115 1137.16 137.398 1135.07 137.008C1133.12 136.487 1130.06 136.096 1125.89 135.836V131.344H1178.04V135.836C1173.88 136.096 1170.75 136.552 1168.67 137.203C1166.71 137.854 1165.02 138.701 1163.59 139.742C1159.16 142.607 1156.95 150.745 1156.95 164.156V281.539H1153.24ZM1263.2 128.414C1273.75 128.414 1283.77 130.628 1293.28 135.055C1302.91 139.482 1311.05 145.602 1317.69 153.414C1323.16 160.055 1327.39 167.802 1330.39 176.656C1333.38 185.51 1334.88 195.016 1334.88 205.172C1334.88 216.5 1333.06 226.917 1329.41 236.422C1325.89 245.797 1320.88 253.87 1314.37 260.641C1307.99 267.411 1300.31 272.685 1291.32 276.461C1282.47 280.237 1272.7 282.125 1262.03 282.125C1251.22 282.125 1241.32 280.237 1232.34 276.461C1223.36 272.685 1215.67 267.411 1209.29 260.641C1202.91 253.74 1197.96 245.536 1194.45 236.031C1190.93 226.526 1189.18 216.044 1189.18 204.586C1189.18 193.388 1191 183.102 1194.64 173.727C1198.29 164.352 1203.37 156.344 1209.88 149.703C1216.39 142.932 1224.14 137.724 1233.12 134.078C1242.24 130.302 1252.26 128.414 1263.2 128.414ZM1261.25 136.227C1255.13 136.227 1249.27 137.659 1243.67 140.523C1238.07 143.258 1233.19 147.099 1229.02 152.047C1226.81 154.651 1224.79 157.906 1222.96 161.812C1221.27 165.719 1219.77 170.016 1218.47 174.703C1217.17 179.26 1216.19 184.143 1215.54 189.352C1214.89 194.56 1214.57 199.768 1214.57 204.977C1214.57 218.388 1216.32 230.302 1219.84 240.719C1223.36 251.135 1228.24 258.948 1234.49 264.156C1242.3 270.797 1251.55 274.117 1262.22 274.117C1267.82 274.117 1273.1 273.076 1278.04 270.992C1283.12 268.909 1287.55 265.979 1291.32 262.203C1303.43 250.354 1309.49 230.953 1309.49 204C1309.49 191.109 1307.67 179.651 1304.02 169.625C1300.5 159.599 1295.56 151.852 1289.18 146.383C1280.97 139.612 1271.66 136.227 1261.25 136.227ZM1446.99 175.875H1441.52C1440.61 172.62 1439.7 169.755 1438.79 167.281C1438 164.807 1437.03 162.594 1435.86 160.641C1434.81 158.557 1433.64 156.734 1432.34 155.172C1431.04 153.479 1429.54 151.721 1427.85 149.898C1420.04 141.695 1410.92 137.594 1400.5 137.594C1393.6 137.594 1388 139.417 1383.71 143.062C1379.54 146.708 1377.46 151.656 1377.46 157.906C1377.46 164.026 1380 169.755 1385.07 175.094C1390.15 180.432 1398.49 186.292 1410.07 192.672C1424.92 200.745 1435.6 208.622 1442.11 216.305C1448.75 223.987 1452.07 232.385 1452.07 241.5C1452.07 247.229 1450.89 252.568 1448.55 257.516C1446.21 262.464 1443.02 266.76 1438.98 270.406C1434.94 274.052 1430.13 276.917 1424.53 279C1418.93 281.083 1412.94 282.125 1406.56 282.125C1402 282.125 1397.51 281.734 1393.08 280.953C1388.65 280.172 1384.36 278.87 1380.19 277.047C1377.98 276.266 1375.96 275.68 1374.14 275.289C1372.31 274.768 1370.82 274.508 1369.64 274.508C1367.95 274.508 1366.52 275.224 1365.35 276.656C1364.18 278.089 1363.52 279.846 1363.39 281.93H1358.51L1351.87 234.664H1356.95C1362.55 248.336 1368.93 258.362 1376.09 264.742C1383.25 270.992 1391.91 274.117 1402.07 274.117C1410.27 274.117 1416.85 271.839 1421.79 267.281C1426.87 262.724 1429.41 256.734 1429.41 249.312C1429.41 246.448 1429.08 243.909 1428.43 241.695C1427.91 239.482 1427.13 237.594 1426.09 236.031C1423.49 231.865 1419.32 227.568 1413.59 223.141C1407.99 218.714 1401.22 214.286 1393.28 209.859C1387.03 206.604 1381.69 203.349 1377.26 200.094C1372.83 196.839 1369.19 193.453 1366.32 189.938C1363.59 186.422 1361.57 182.776 1360.27 179C1358.97 175.224 1358.32 171.122 1358.32 166.695C1358.32 154.326 1362.61 144.69 1371.21 137.789C1374.85 134.794 1378.89 132.516 1383.32 130.953C1387.74 129.26 1392.11 128.414 1396.4 128.414C1400.31 128.414 1404.21 128.87 1408.12 129.781C1412.16 130.562 1416.26 131.734 1420.43 133.297C1422.51 134.208 1424.4 134.859 1426.09 135.25C1427.78 135.641 1429.21 135.836 1430.39 135.836C1434.03 135.836 1436.38 133.362 1437.42 128.414H1442.11L1446.99 175.875Z" fill="url(#paint4_linear_0_1)"/>
<defs>
<linearGradient id="paint0_linear_0_1" x1="211" y1="34" x2="376" y2="322" gradientUnits="userSpaceOnUse">
<stop stop-color="#3B82F6"/>
<stop offset="1" stop-color="#8B5CF6"/>
</linearGradient>
<linearGradient id="paint1_linear_0_1" x1="29" y1="347.5" x2="362" y2="347.5" gradientUnits="userSpaceOnUse">
<stop stop-color="#EC4899"/>
<stop offset="1" stop-color="#8B5CF6"/>
</linearGradient>
<linearGradient id="paint2_linear_0_1" x1="181" y1="34" x2="14.5" y2="322.5" gradientUnits="userSpaceOnUse">
<stop stop-color="#3B82F6"/>
<stop offset="1" stop-color="#EC4899"/>
</linearGradient>
<radialGradient id="paint3_angular_0_1" cx="0" cy="0" r="1" gradientUnits="userSpaceOnUse" gradientTransform="translate(191 191) rotate(-146.159) scale(184.508 183.751)">
<stop offset="0.20759" stop-color="#EC4899"/>
<stop offset="0.477974" stop-color="#8B5CF6"/>
<stop offset="0.841169" stop-color="#3B82F6"/>
</radialGradient>
<linearGradient id="paint4_linear_0_1" x1="401" y1="195.5" x2="1467" y2="195.5" gradientUnits="userSpaceOnUse">
<stop stop-color="#3B82F6"/>
<stop offset="0.5" stop-color="#8B5CF6"/>
<stop offset="1" stop-color="#EC4899"/>
</linearGradient>
</defs>
</svg>
