<svg width="391" height="391" viewBox="0 0 391 391" fill="none" xmlns="http://www.w3.org/2000/svg">
<path d="M196 42.5L225 26L391 314L362 331L196 42.5Z" fill="url(#paint0_linear_9_56)"/>
<path d="M196 42.5L167.5 26H225L196 42.5Z" fill="#3B82F6"/>
<path d="M362 331L391 314L362 364V331Z" fill="#8B5CF6"/>
<path d="M29 331L0 314L29 364V331Z" fill="#EC4899"/>
<path d="M362 364V331H29V364H362Z" fill="url(#paint1_linear_9_56)"/>
<path d="M29 331L0 314L167.5 26L196 42.5L29 331Z" fill="url(#paint2_linear_9_56)"/>
<path d="M29 331L352 322L196 51.5L38 322L343 313L196 60.5L47 313L334 304L196 69.5L56 304L325 295L196 78.5L65 295L316 286L196 87.5L74 286L307 277L196 96.5L83 277L298 268L196 105.5L92 268L289 259L196 114.5L101 259L280 250L196 123.5" stroke="url(#paint3_angular_9_56)"/>
<defs>
<linearGradient id="paint0_linear_9_56" x1="211" y1="34" x2="376" y2="322" gradientUnits="userSpaceOnUse">
<stop stop-color="#3B82F6"/>
<stop offset="1" stop-color="#8B5CF6"/>
</linearGradient>
<linearGradient id="paint1_linear_9_56" x1="29" y1="347.5" x2="362" y2="347.5" gradientUnits="userSpaceOnUse">
<stop stop-color="#EC4899"/>
<stop offset="1" stop-color="#8B5CF6"/>
</linearGradient>
<linearGradient id="paint2_linear_9_56" x1="181" y1="34" x2="14.5" y2="322.5" gradientUnits="userSpaceOnUse">
<stop stop-color="#3B82F6"/>
<stop offset="1" stop-color="#EC4899"/>
</linearGradient>
<radialGradient id="paint3_angular_9_56" cx="0" cy="0" r="1" gradientUnits="userSpaceOnUse" gradientTransform="translate(191 191) rotate(-146.159) scale(184.508 183.751)">
<stop offset="0.20759" stop-color="#EC4899"/>
<stop offset="0.477974" stop-color="#8B5CF6"/>
<stop offset="0.841169" stop-color="#3B82F6"/>
</radialGradient>
</defs>
</svg>
